<svg width="48" height="48" viewBox="0 0 48 48" fill="none" xmlns="http://www.w3.org/2000/svg">
<g id="Group 1">
<circle id="Ellipse 1" cx="27.2" cy="19.2" r="3.2" fill="#00FFB1"/>
<circle id="Ellipse 2" cx="38.24" cy="14.24" r="3.2" fill="#00FFB1"/>
<path id="Vector" fill-rule="evenodd" clip-rule="evenodd" d="M9.18768 0.155896C7.97346 0.650676 7.26903 1.70837 7.26903 3.03716C7.26903 4.82875 8.52559 6.09037 10.3098 6.09037C10.9341 6.09037 11.0386 6.15288 11.5586 6.83889L12.1262 7.58756L10.4442 9.28949C7.24897 12.523 5.21532 16.3217 4.28056 20.8031C4.00047 22.1456 3.87898 22.4524 3.52037 22.7223C2.52005 23.4753 1.38482 24.6809 0.95259 25.4493C0.0895542 26.9838 -0.227981 29.2263 0.16965 30.9801C0.781974 33.6824 3.14628 36.0184 5.88925 36.6318C6.79763 36.8349 6.80268 36.8392 7.70047 38.2154C8.95482 40.1378 11.689 42.8865 13.6771 44.2238C17.3183 46.6731 20.8672 47.8226 25.2828 47.983C30.1335 48.1592 34.3581 46.9698 38.31 44.3148C42.9257 41.214 46.242 36.5068 47.6246 31.0936C48.1665 28.9724 48.1259 28.742 47.4759 30.2485C45.5687 34.6698 41.7034 38.2074 37.1203 39.7261C32.8283 41.1484 27.4135 40.636 23.7496 38.4607C23.3866 38.245 23.0255 38.0687 22.9473 38.0687C22.8689 38.0687 22.2417 38.3959 21.5536 38.7957C20.0885 39.6471 17.991 40.3684 16.1496 40.6545C14.9904 40.8346 14.812 40.8287 14.5894 40.6024C14.3597 40.3688 14.4138 40.2485 15.2182 39.2027C16.8359 37.0999 17.6956 35.1891 17.6956 33.6972C17.6956 33.0864 17.5574 32.6534 17.0752 31.7539C14.7886 27.4879 14.2755 22.9177 15.5724 18.3659C16.8403 13.9151 20.0324 9.9845 24.103 7.86171C28.8993 5.36049 34.4317 5.30264 39.3386 7.70262C41.2134 8.61939 41.0427 8.38028 38.6361 6.7174C36.0751 4.94783 33.525 3.84353 30.4426 3.16925C28.1384 2.66515 23.9985 2.66515 21.6943 3.16925C19.0912 3.73859 16.4079 4.80802 14.4867 6.04168C14.1463 6.26022 13.8175 6.37865 13.7561 6.3049C13.6946 6.23114 13.4292 5.88146 13.1662 5.52794L12.6878 4.88515L12.9758 4.24237C13.1343 3.88884 13.2642 3.3465 13.2646 3.03716C13.2659 1.91936 12.342 0.545098 11.3267 0.15493C10.7882 -0.0520456 9.69684 -0.0515616 9.18768 0.155896Z" fill="#5C33FF"/>
</g>
</svg>
